<mxfile host="app.diagrams.net" agent="Mozilla/5.0 (Windows NT 10.0; Win64; x64) AppleWebKit/537.36 (KHTML, like Gecko) Chrome/137.0.0.0 Safari/537.36" version="27.1.6">
  <diagram name="Trang-1" id="DlbQNyAbYZIluqN7Bp8Z">
    <mxGraphModel dx="2646" dy="1671" grid="1" gridSize="10" guides="1" tooltips="1" connect="1" arrows="1" fold="1" page="1" pageScale="1" pageWidth="827" pageHeight="1169" math="0" shadow="0">
      <root>
        <mxCell id="0" />
        <mxCell id="1" parent="0" />
        <mxCell id="cpo0J4aH2CnwB5jtcVIV-1" value="&lt;font style=&quot;font-size: 24px;&quot;&gt;TravelService&lt;/font&gt;&lt;div&gt;&lt;br&gt;&lt;/div&gt;" style="swimlane;fontStyle=1;align=center;verticalAlign=top;childLayout=stackLayout;horizontal=1;startSize=26;horizontalStack=0;resizeParent=1;resizeParentMax=0;resizeLast=0;collapsible=1;marginBottom=0;whiteSpace=wrap;html=1;" parent="1" vertex="1">
          <mxGeometry x="580" y="-291" width="470" height="94" as="geometry" />
        </mxCell>
        <mxCell id="cpo0J4aH2CnwB5jtcVIV-3" value="" style="line;strokeWidth=1;fillColor=none;align=left;verticalAlign=middle;spacingTop=-1;spacingLeft=3;spacingRight=3;rotatable=0;labelPosition=right;points=[];portConstraint=eastwest;strokeColor=inherit;" parent="cpo0J4aH2CnwB5jtcVIV-1" vertex="1">
          <mxGeometry y="26" width="470" height="8" as="geometry" />
        </mxCell>
        <mxCell id="cpo0J4aH2CnwB5jtcVIV-4" value="+ virtual string getInfo() const = 0&lt;div&gt;+ virtual bool book(int groupSize) = 0&lt;/div&gt;&lt;div&gt;+ virtual ~TravelService()&lt;/div&gt;&lt;div&gt;&lt;br&gt;&lt;/div&gt;" style="text;strokeColor=none;fillColor=none;align=left;verticalAlign=top;spacingLeft=4;spacingRight=4;overflow=hidden;rotatable=0;points=[[0,0.5],[1,0.5]];portConstraint=eastwest;whiteSpace=wrap;html=1;" parent="cpo0J4aH2CnwB5jtcVIV-1" vertex="1">
          <mxGeometry y="34" width="470" height="60" as="geometry" />
        </mxCell>
        <mxCell id="cpo0J4aH2CnwB5jtcVIV-13" value="HotelBookingFactory" style="swimlane;fontStyle=1;align=center;verticalAlign=top;childLayout=stackLayout;horizontal=1;startSize=26;horizontalStack=0;resizeParent=1;resizeParentMax=0;resizeLast=0;collapsible=1;marginBottom=0;whiteSpace=wrap;html=1;" parent="1" vertex="1">
          <mxGeometry x="-150" y="-80" width="160" height="86" as="geometry" />
        </mxCell>
        <mxCell id="cpo0J4aH2CnwB5jtcVIV-14" value="+ field: type" style="text;strokeColor=none;fillColor=none;align=left;verticalAlign=top;spacingLeft=4;spacingRight=4;overflow=hidden;rotatable=0;points=[[0,0.5],[1,0.5]];portConstraint=eastwest;whiteSpace=wrap;html=1;" parent="cpo0J4aH2CnwB5jtcVIV-13" vertex="1">
          <mxGeometry y="26" width="160" height="26" as="geometry" />
        </mxCell>
        <mxCell id="cpo0J4aH2CnwB5jtcVIV-15" value="" style="line;strokeWidth=1;fillColor=none;align=left;verticalAlign=middle;spacingTop=-1;spacingLeft=3;spacingRight=3;rotatable=0;labelPosition=right;points=[];portConstraint=eastwest;strokeColor=inherit;" parent="cpo0J4aH2CnwB5jtcVIV-13" vertex="1">
          <mxGeometry y="52" width="160" height="8" as="geometry" />
        </mxCell>
        <mxCell id="cpo0J4aH2CnwB5jtcVIV-16" value="+ method(type): type" style="text;strokeColor=none;fillColor=none;align=left;verticalAlign=top;spacingLeft=4;spacingRight=4;overflow=hidden;rotatable=0;points=[[0,0.5],[1,0.5]];portConstraint=eastwest;whiteSpace=wrap;html=1;" parent="cpo0J4aH2CnwB5jtcVIV-13" vertex="1">
          <mxGeometry y="60" width="160" height="26" as="geometry" />
        </mxCell>
        <mxCell id="cpo0J4aH2CnwB5jtcVIV-17" value="CarRentalFactory&lt;br&gt;&lt;div&gt;&lt;br&gt;&lt;/div&gt;" style="swimlane;fontStyle=1;align=center;verticalAlign=top;childLayout=stackLayout;horizontal=1;startSize=26;horizontalStack=0;resizeParent=1;resizeParentMax=0;resizeLast=0;collapsible=1;marginBottom=0;whiteSpace=wrap;html=1;" parent="1" vertex="1">
          <mxGeometry x="-350" y="-80" width="160" height="86" as="geometry" />
        </mxCell>
        <mxCell id="cpo0J4aH2CnwB5jtcVIV-18" value="+ field: type" style="text;strokeColor=none;fillColor=none;align=left;verticalAlign=top;spacingLeft=4;spacingRight=4;overflow=hidden;rotatable=0;points=[[0,0.5],[1,0.5]];portConstraint=eastwest;whiteSpace=wrap;html=1;" parent="cpo0J4aH2CnwB5jtcVIV-17" vertex="1">
          <mxGeometry y="26" width="160" height="26" as="geometry" />
        </mxCell>
        <mxCell id="cpo0J4aH2CnwB5jtcVIV-19" value="" style="line;strokeWidth=1;fillColor=none;align=left;verticalAlign=middle;spacingTop=-1;spacingLeft=3;spacingRight=3;rotatable=0;labelPosition=right;points=[];portConstraint=eastwest;strokeColor=inherit;" parent="cpo0J4aH2CnwB5jtcVIV-17" vertex="1">
          <mxGeometry y="52" width="160" height="8" as="geometry" />
        </mxCell>
        <mxCell id="cpo0J4aH2CnwB5jtcVIV-20" value="+ method(type): type" style="text;strokeColor=none;fillColor=none;align=left;verticalAlign=top;spacingLeft=4;spacingRight=4;overflow=hidden;rotatable=0;points=[[0,0.5],[1,0.5]];portConstraint=eastwest;whiteSpace=wrap;html=1;" parent="cpo0J4aH2CnwB5jtcVIV-17" vertex="1">
          <mxGeometry y="60" width="160" height="26" as="geometry" />
        </mxCell>
        <mxCell id="cpo0J4aH2CnwB5jtcVIV-21" value="HaLongTuanChau" style="swimlane;fontStyle=1;align=center;verticalAlign=top;childLayout=stackLayout;horizontal=1;startSize=26;horizontalStack=0;resizeParent=1;resizeParentMax=0;resizeLast=0;collapsible=1;marginBottom=0;whiteSpace=wrap;html=1;" parent="1" vertex="1">
          <mxGeometry x="640" y="-80" width="300" height="280" as="geometry" />
        </mxCell>
        <mxCell id="cpo0J4aH2CnwB5jtcVIV-22" value="- tourName: string&lt;div&gt;- tourCode: string&lt;/div&gt;&lt;div&gt;- departurePoint: string&lt;/div&gt;&lt;div&gt;- accommodation: string&lt;/div&gt;&lt;div&gt;- tourPrice: double&lt;/div&gt;&lt;div&gt;- itinerary: vector&amp;lt;Itinerary&amp;gt;&lt;/div&gt;&lt;div&gt;- includedServices: vector&amp;lt;IncludedService&amp;gt;&lt;/div&gt;&lt;div&gt;- contact: string&lt;/div&gt;&lt;div&gt;- maxGroup: int&lt;/div&gt;&lt;div&gt;- booked: int&lt;/div&gt;" style="text;strokeColor=none;fillColor=none;align=left;verticalAlign=top;spacingLeft=4;spacingRight=4;overflow=hidden;rotatable=0;points=[[0,0.5],[1,0.5]];portConstraint=eastwest;whiteSpace=wrap;html=1;" parent="cpo0J4aH2CnwB5jtcVIV-21" vertex="1">
          <mxGeometry y="26" width="300" height="154" as="geometry" />
        </mxCell>
        <mxCell id="cpo0J4aH2CnwB5jtcVIV-23" value="" style="line;strokeWidth=1;fillColor=none;align=left;verticalAlign=middle;spacingTop=-1;spacingLeft=3;spacingRight=3;rotatable=0;labelPosition=right;points=[];portConstraint=eastwest;strokeColor=inherit;" parent="cpo0J4aH2CnwB5jtcVIV-21" vertex="1">
          <mxGeometry y="180" width="300" height="8" as="geometry" />
        </mxCell>
        <mxCell id="cpo0J4aH2CnwB5jtcVIV-24" value="+ HaLongTuanChau()&lt;div&gt;+ ~HaLongTuanChau()&lt;/div&gt;&lt;div&gt;+ HaLongTuanChau(other: const HaLongTuanChau&amp;amp;)&lt;/div&gt;&lt;div&gt;+ getInfo() const override: string&lt;/div&gt;&lt;div&gt;+ book(groupSize: int) override: bool&lt;/div&gt;" style="text;strokeColor=none;fillColor=none;align=left;verticalAlign=top;spacingLeft=4;spacingRight=4;overflow=hidden;rotatable=0;points=[[0,0.5],[1,0.5]];portConstraint=eastwest;whiteSpace=wrap;html=1;" parent="cpo0J4aH2CnwB5jtcVIV-21" vertex="1">
          <mxGeometry y="188" width="300" height="92" as="geometry" />
        </mxCell>
        <mxCell id="cpo0J4aH2CnwB5jtcVIV-25" value="DaLat" style="swimlane;fontStyle=1;align=center;verticalAlign=top;childLayout=stackLayout;horizontal=1;startSize=26;horizontalStack=0;resizeParent=1;resizeParentMax=0;resizeLast=0;collapsible=1;marginBottom=0;whiteSpace=wrap;html=1;" parent="1" vertex="1">
          <mxGeometry x="50" y="-80" width="260" height="290" as="geometry" />
        </mxCell>
        <mxCell id="cpo0J4aH2CnwB5jtcVIV-26" value="- tourName: string&lt;div&gt;- tourCode: string&lt;/div&gt;&lt;div&gt;- departureDate: string&lt;/div&gt;&lt;div&gt;- transportation: string&lt;/div&gt;&lt;div&gt;- hotel: string&lt;/div&gt;&lt;div&gt;- tourPrice: double&lt;/div&gt;&lt;div&gt;- itinerary: vector&amp;lt;Itinerary&amp;gt;&lt;/div&gt;&lt;div&gt;- includedServices: vector&amp;lt;IncludedService&amp;gt;&lt;/div&gt;&lt;div&gt;- contact: string&lt;/div&gt;&lt;div&gt;- maxGroup: int&lt;/div&gt;&lt;div&gt;- booked: int&lt;/div&gt;" style="text;strokeColor=none;fillColor=none;align=left;verticalAlign=top;spacingLeft=4;spacingRight=4;overflow=hidden;rotatable=0;points=[[0,0.5],[1,0.5]];portConstraint=eastwest;whiteSpace=wrap;html=1;" parent="cpo0J4aH2CnwB5jtcVIV-25" vertex="1">
          <mxGeometry y="26" width="260" height="174" as="geometry" />
        </mxCell>
        <mxCell id="cpo0J4aH2CnwB5jtcVIV-27" value="" style="line;strokeWidth=1;fillColor=none;align=left;verticalAlign=middle;spacingTop=-1;spacingLeft=3;spacingRight=3;rotatable=0;labelPosition=right;points=[];portConstraint=eastwest;strokeColor=inherit;" parent="cpo0J4aH2CnwB5jtcVIV-25" vertex="1">
          <mxGeometry y="200" width="260" height="8" as="geometry" />
        </mxCell>
        <mxCell id="cpo0J4aH2CnwB5jtcVIV-28" value="+ DaLat()&lt;div&gt;+ ~DaLat()&lt;/div&gt;&lt;div&gt;+ DaLat(other: const DaLat&amp;amp;)&lt;/div&gt;&lt;div&gt;+ getInfo() const override: string&lt;/div&gt;&lt;div&gt;+ book(groupSize: int) override: bool&lt;/div&gt;" style="text;strokeColor=none;fillColor=none;align=left;verticalAlign=top;spacingLeft=4;spacingRight=4;overflow=hidden;rotatable=0;points=[[0,0.5],[1,0.5]];portConstraint=eastwest;whiteSpace=wrap;html=1;" parent="cpo0J4aH2CnwB5jtcVIV-25" vertex="1">
          <mxGeometry y="208" width="260" height="82" as="geometry" />
        </mxCell>
        <mxCell id="cpo0J4aH2CnwB5jtcVIV-29" value="SapaHaGiang" style="swimlane;fontStyle=1;align=center;verticalAlign=top;childLayout=stackLayout;horizontal=1;startSize=26;horizontalStack=0;resizeParent=1;resizeParentMax=0;resizeLast=0;collapsible=1;marginBottom=0;whiteSpace=wrap;html=1;" parent="1" vertex="1">
          <mxGeometry x="340" y="-80" width="260" height="260" as="geometry" />
        </mxCell>
        <mxCell id="cpo0J4aH2CnwB5jtcVIV-30" value="- tourName: string&lt;div&gt;- tourCode: string&lt;/div&gt;&lt;div&gt;- departurePoint: string&lt;/div&gt;&lt;div&gt;- tourPrice: double&lt;/div&gt;&lt;div&gt;- itinerary: vector&amp;lt;Itinerary&amp;gt;&lt;/div&gt;&lt;div&gt;- includedServices: vector&amp;lt;IncludedService&amp;gt;&lt;/div&gt;&lt;div&gt;- contact: string&lt;/div&gt;&lt;div&gt;- maxGroup: int&lt;/div&gt;&lt;div&gt;- booked: int&lt;/div&gt;" style="text;strokeColor=none;fillColor=none;align=left;verticalAlign=top;spacingLeft=4;spacingRight=4;overflow=hidden;rotatable=0;points=[[0,0.5],[1,0.5]];portConstraint=eastwest;whiteSpace=wrap;html=1;" parent="cpo0J4aH2CnwB5jtcVIV-29" vertex="1">
          <mxGeometry y="26" width="260" height="144" as="geometry" />
        </mxCell>
        <mxCell id="cpo0J4aH2CnwB5jtcVIV-31" value="" style="line;strokeWidth=1;fillColor=none;align=left;verticalAlign=middle;spacingTop=-1;spacingLeft=3;spacingRight=3;rotatable=0;labelPosition=right;points=[];portConstraint=eastwest;strokeColor=inherit;" parent="cpo0J4aH2CnwB5jtcVIV-29" vertex="1">
          <mxGeometry y="170" width="260" height="8" as="geometry" />
        </mxCell>
        <mxCell id="cpo0J4aH2CnwB5jtcVIV-32" value="+ SapaHaGiang()&lt;div&gt;+ ~SapaHaGiang()&lt;/div&gt;&lt;div&gt;+ SapaHaGiang(other: const SapaHaGiang&amp;amp;)&lt;/div&gt;&lt;div&gt;+ getInfo() const override: string&lt;/div&gt;&lt;div&gt;+ book(groupSize: int) override: bool&lt;/div&gt;" style="text;strokeColor=none;fillColor=none;align=left;verticalAlign=top;spacingLeft=4;spacingRight=4;overflow=hidden;rotatable=0;points=[[0,0.5],[1,0.5]];portConstraint=eastwest;whiteSpace=wrap;html=1;" parent="cpo0J4aH2CnwB5jtcVIV-29" vertex="1">
          <mxGeometry y="178" width="260" height="82" as="geometry" />
        </mxCell>
        <mxCell id="cpo0J4aH2CnwB5jtcVIV-38" value="Extends" style="endArrow=block;endSize=16;endFill=0;html=1;rounded=0;exitX=0.5;exitY=0;exitDx=0;exitDy=0;entryX=0.013;entryY=1.01;entryDx=0;entryDy=0;entryPerimeter=0;" parent="1" source="cpo0J4aH2CnwB5jtcVIV-25" target="cpo0J4aH2CnwB5jtcVIV-4" edge="1">
          <mxGeometry width="160" relative="1" as="geometry">
            <mxPoint x="90" y="250" as="sourcePoint" />
            <mxPoint x="-232.00000000000045" y="264.36799999999994" as="targetPoint" />
          </mxGeometry>
        </mxCell>
        <mxCell id="cpo0J4aH2CnwB5jtcVIV-39" value="Extends" style="endArrow=block;endSize=16;endFill=0;html=1;rounded=0;exitX=0.118;exitY=0;exitDx=0;exitDy=0;entryX=0.216;entryY=1.093;entryDx=0;entryDy=0;entryPerimeter=0;exitPerimeter=0;" parent="1" source="cpo0J4aH2CnwB5jtcVIV-21" target="cpo0J4aH2CnwB5jtcVIV-4" edge="1">
          <mxGeometry width="160" relative="1" as="geometry">
            <mxPoint x="885.5" as="sourcePoint" />
            <mxPoint x="480" y="-183" as="targetPoint" />
          </mxGeometry>
        </mxCell>
        <mxCell id="cpo0J4aH2CnwB5jtcVIV-40" value="Extends" style="endArrow=block;endSize=16;endFill=0;html=1;rounded=0;exitX=0.25;exitY=0;exitDx=0;exitDy=0;entryX=0.073;entryY=1.055;entryDx=0;entryDy=0;entryPerimeter=0;" parent="1" source="cpo0J4aH2CnwB5jtcVIV-29" target="cpo0J4aH2CnwB5jtcVIV-4" edge="1">
          <mxGeometry width="160" relative="1" as="geometry">
            <mxPoint x="502.3" y="-3.78" as="sourcePoint" />
            <mxPoint x="439.99999999999983" y="-186.00000000000003" as="targetPoint" />
          </mxGeometry>
        </mxCell>
        <mxCell id="cpo0J4aH2CnwB5jtcVIV-41" value="FlightTicketService&lt;div&gt;&lt;br&gt;&lt;/div&gt;" style="swimlane;fontStyle=1;align=center;verticalAlign=top;childLayout=stackLayout;horizontal=1;startSize=26;horizontalStack=0;resizeParent=1;resizeParentMax=0;resizeLast=0;collapsible=1;marginBottom=0;whiteSpace=wrap;html=1;" parent="1" vertex="1">
          <mxGeometry x="1540" y="-80" width="160" height="86" as="geometry" />
        </mxCell>
        <mxCell id="cpo0J4aH2CnwB5jtcVIV-42" value="+ field: type" style="text;strokeColor=none;fillColor=none;align=left;verticalAlign=top;spacingLeft=4;spacingRight=4;overflow=hidden;rotatable=0;points=[[0,0.5],[1,0.5]];portConstraint=eastwest;whiteSpace=wrap;html=1;" parent="cpo0J4aH2CnwB5jtcVIV-41" vertex="1">
          <mxGeometry y="26" width="160" height="26" as="geometry" />
        </mxCell>
        <mxCell id="cpo0J4aH2CnwB5jtcVIV-43" value="" style="line;strokeWidth=1;fillColor=none;align=left;verticalAlign=middle;spacingTop=-1;spacingLeft=3;spacingRight=3;rotatable=0;labelPosition=right;points=[];portConstraint=eastwest;strokeColor=inherit;" parent="cpo0J4aH2CnwB5jtcVIV-41" vertex="1">
          <mxGeometry y="52" width="160" height="8" as="geometry" />
        </mxCell>
        <mxCell id="cpo0J4aH2CnwB5jtcVIV-44" value="+ method(type): type" style="text;strokeColor=none;fillColor=none;align=left;verticalAlign=top;spacingLeft=4;spacingRight=4;overflow=hidden;rotatable=0;points=[[0,0.5],[1,0.5]];portConstraint=eastwest;whiteSpace=wrap;html=1;" parent="cpo0J4aH2CnwB5jtcVIV-41" vertex="1">
          <mxGeometry y="60" width="160" height="26" as="geometry" />
        </mxCell>
        <mxCell id="cpo0J4aH2CnwB5jtcVIV-45" value="BusTicketService" style="swimlane;fontStyle=1;align=center;verticalAlign=top;childLayout=stackLayout;horizontal=1;startSize=26;horizontalStack=0;resizeParent=1;resizeParentMax=0;resizeLast=0;collapsible=1;marginBottom=0;whiteSpace=wrap;html=1;" parent="1" vertex="1">
          <mxGeometry x="1720" y="-80" width="160" height="86" as="geometry" />
        </mxCell>
        <mxCell id="cpo0J4aH2CnwB5jtcVIV-46" value="+ field: type" style="text;strokeColor=none;fillColor=none;align=left;verticalAlign=top;spacingLeft=4;spacingRight=4;overflow=hidden;rotatable=0;points=[[0,0.5],[1,0.5]];portConstraint=eastwest;whiteSpace=wrap;html=1;" parent="cpo0J4aH2CnwB5jtcVIV-45" vertex="1">
          <mxGeometry y="26" width="160" height="26" as="geometry" />
        </mxCell>
        <mxCell id="cpo0J4aH2CnwB5jtcVIV-47" value="" style="line;strokeWidth=1;fillColor=none;align=left;verticalAlign=middle;spacingTop=-1;spacingLeft=3;spacingRight=3;rotatable=0;labelPosition=right;points=[];portConstraint=eastwest;strokeColor=inherit;" parent="cpo0J4aH2CnwB5jtcVIV-45" vertex="1">
          <mxGeometry y="52" width="160" height="8" as="geometry" />
        </mxCell>
        <mxCell id="cpo0J4aH2CnwB5jtcVIV-48" value="+ method(type): type" style="text;strokeColor=none;fillColor=none;align=left;verticalAlign=top;spacingLeft=4;spacingRight=4;overflow=hidden;rotatable=0;points=[[0,0.5],[1,0.5]];portConstraint=eastwest;whiteSpace=wrap;html=1;" parent="cpo0J4aH2CnwB5jtcVIV-45" vertex="1">
          <mxGeometry y="60" width="160" height="26" as="geometry" />
        </mxCell>
        <mxCell id="cpo0J4aH2CnwB5jtcVIV-49" value="TrainTicketService&lt;div&gt;&lt;br&gt;&lt;/div&gt;" style="swimlane;fontStyle=1;align=center;verticalAlign=top;childLayout=stackLayout;horizontal=1;startSize=26;horizontalStack=0;resizeParent=1;resizeParentMax=0;resizeLast=0;collapsible=1;marginBottom=0;whiteSpace=wrap;html=1;" parent="1" vertex="1">
          <mxGeometry x="1920" y="-80" width="160" height="86" as="geometry" />
        </mxCell>
        <mxCell id="cpo0J4aH2CnwB5jtcVIV-50" value="+ field: type" style="text;strokeColor=none;fillColor=none;align=left;verticalAlign=top;spacingLeft=4;spacingRight=4;overflow=hidden;rotatable=0;points=[[0,0.5],[1,0.5]];portConstraint=eastwest;whiteSpace=wrap;html=1;" parent="cpo0J4aH2CnwB5jtcVIV-49" vertex="1">
          <mxGeometry y="26" width="160" height="26" as="geometry" />
        </mxCell>
        <mxCell id="cpo0J4aH2CnwB5jtcVIV-51" value="" style="line;strokeWidth=1;fillColor=none;align=left;verticalAlign=middle;spacingTop=-1;spacingLeft=3;spacingRight=3;rotatable=0;labelPosition=right;points=[];portConstraint=eastwest;strokeColor=inherit;" parent="cpo0J4aH2CnwB5jtcVIV-49" vertex="1">
          <mxGeometry y="52" width="160" height="8" as="geometry" />
        </mxCell>
        <mxCell id="cpo0J4aH2CnwB5jtcVIV-52" value="+ method(type): type" style="text;strokeColor=none;fillColor=none;align=left;verticalAlign=top;spacingLeft=4;spacingRight=4;overflow=hidden;rotatable=0;points=[[0,0.5],[1,0.5]];portConstraint=eastwest;whiteSpace=wrap;html=1;" parent="cpo0J4aH2CnwB5jtcVIV-49" vertex="1">
          <mxGeometry y="60" width="160" height="26" as="geometry" />
        </mxCell>
        <mxCell id="cpo0J4aH2CnwB5jtcVIV-53" value="Extends" style="endArrow=block;endSize=16;endFill=0;html=1;rounded=0;exitX=0.438;exitY=0;exitDx=0;exitDy=0;exitPerimeter=0;entryX=0.834;entryY=1.074;entryDx=0;entryDy=0;entryPerimeter=0;" parent="1" source="cpo0J4aH2CnwB5jtcVIV-41" target="cpo0J4aH2CnwB5jtcVIV-4" edge="1">
          <mxGeometry width="160" relative="1" as="geometry">
            <mxPoint x="240" y="310" as="sourcePoint" />
            <mxPoint x="330.96000000000004" y="289.25" as="targetPoint" />
          </mxGeometry>
        </mxCell>
        <mxCell id="cpo0J4aH2CnwB5jtcVIV-54" value="Extends" style="endArrow=block;endSize=16;endFill=0;html=1;rounded=0;exitX=0.5;exitY=0;exitDx=0;exitDy=0;entryX=0.945;entryY=1.081;entryDx=0;entryDy=0;entryPerimeter=0;" parent="1" source="cpo0J4aH2CnwB5jtcVIV-45" target="cpo0J4aH2CnwB5jtcVIV-4" edge="1">
          <mxGeometry width="160" relative="1" as="geometry">
            <mxPoint x="180" y="150" as="sourcePoint" />
            <mxPoint x="397.03999999999996" y="291.25199999999995" as="targetPoint" />
          </mxGeometry>
        </mxCell>
        <mxCell id="cpo0J4aH2CnwB5jtcVIV-55" value="Extends" style="endArrow=block;endSize=16;endFill=0;html=1;rounded=0;exitX=0;exitY=0;exitDx=0;exitDy=0;entryX=0.994;entryY=1.023;entryDx=0;entryDy=0;entryPerimeter=0;" parent="1" source="cpo0J4aH2CnwB5jtcVIV-49" target="cpo0J4aH2CnwB5jtcVIV-4" edge="1">
          <mxGeometry width="160" relative="1" as="geometry">
            <mxPoint x="180" y="150" as="sourcePoint" />
            <mxPoint x="494" y="287.24800000000005" as="targetPoint" />
          </mxGeometry>
        </mxCell>
        <mxCell id="cpo0J4aH2CnwB5jtcVIV-56" value="&lt;font style=&quot;font-size: 24px;&quot;&gt;TravelServiceFactory&lt;/font&gt;&lt;div&gt;&lt;br&gt;&lt;/div&gt;" style="swimlane;fontStyle=1;align=center;verticalAlign=top;childLayout=stackLayout;horizontal=1;startSize=26;horizontalStack=0;resizeParent=1;resizeParentMax=0;resizeLast=0;collapsible=1;marginBottom=0;whiteSpace=wrap;html=1;" parent="1" vertex="1">
          <mxGeometry x="-500" y="-290" width="300" height="80" as="geometry" />
        </mxCell>
        <mxCell id="cpo0J4aH2CnwB5jtcVIV-58" value="" style="line;strokeWidth=1;fillColor=none;align=left;verticalAlign=middle;spacingTop=-1;spacingLeft=3;spacingRight=3;rotatable=0;labelPosition=right;points=[];portConstraint=eastwest;strokeColor=inherit;" parent="cpo0J4aH2CnwB5jtcVIV-56" vertex="1">
          <mxGeometry y="26" width="300" height="8" as="geometry" />
        </mxCell>
        <mxCell id="cpo0J4aH2CnwB5jtcVIV-59" value="+ virtual createService() const = 0: TravelService*&lt;div&gt;+ virtual ~TravelServiceFactory()&lt;/div&gt;" style="text;strokeColor=none;fillColor=none;align=left;verticalAlign=top;spacingLeft=4;spacingRight=4;overflow=hidden;rotatable=0;points=[[0,0.5],[1,0.5]];portConstraint=eastwest;whiteSpace=wrap;html=1;" parent="cpo0J4aH2CnwB5jtcVIV-56" vertex="1">
          <mxGeometry y="34" width="300" height="46" as="geometry" />
        </mxCell>
        <mxCell id="cpo0J4aH2CnwB5jtcVIV-62" value="TourFactory" style="swimlane;fontStyle=1;align=center;verticalAlign=top;childLayout=stackLayout;horizontal=1;startSize=26;horizontalStack=0;resizeParent=1;resizeParentMax=0;resizeLast=0;collapsible=1;marginBottom=0;whiteSpace=wrap;html=1;" parent="1" vertex="1">
          <mxGeometry x="-930" y="-80" width="270" height="130" as="geometry" />
        </mxCell>
        <mxCell id="cpo0J4aH2CnwB5jtcVIV-63" value="- tourType: string" style="text;strokeColor=none;fillColor=none;align=left;verticalAlign=top;spacingLeft=4;spacingRight=4;overflow=hidden;rotatable=0;points=[[0,0.5],[1,0.5]];portConstraint=eastwest;whiteSpace=wrap;html=1;" parent="cpo0J4aH2CnwB5jtcVIV-62" vertex="1">
          <mxGeometry y="26" width="270" height="26" as="geometry" />
        </mxCell>
        <mxCell id="cpo0J4aH2CnwB5jtcVIV-64" value="" style="line;strokeWidth=1;fillColor=none;align=left;verticalAlign=middle;spacingTop=-1;spacingLeft=3;spacingRight=3;rotatable=0;labelPosition=right;points=[];portConstraint=eastwest;strokeColor=inherit;" parent="cpo0J4aH2CnwB5jtcVIV-62" vertex="1">
          <mxGeometry y="52" width="270" height="8" as="geometry" />
        </mxCell>
        <mxCell id="cpo0J4aH2CnwB5jtcVIV-65" value="+ TourFactory(tourType: const string&amp;amp;)&lt;div&gt;+ virtual ~TourFactory()&lt;/div&gt;&lt;div&gt;+ TourFactory(other: const TourFactory&amp;amp;)&lt;/div&gt;&lt;div&gt;+ createService() const override: TravelService*&lt;/div&gt;" style="text;strokeColor=none;fillColor=none;align=left;verticalAlign=top;spacingLeft=4;spacingRight=4;overflow=hidden;rotatable=0;points=[[0,0.5],[1,0.5]];portConstraint=eastwest;whiteSpace=wrap;html=1;" parent="cpo0J4aH2CnwB5jtcVIV-62" vertex="1">
          <mxGeometry y="60" width="270" height="70" as="geometry" />
        </mxCell>
        <mxCell id="cpo0J4aH2CnwB5jtcVIV-66" value="TicketFactory&lt;br&gt;&lt;div&gt;&lt;br&gt;&lt;/div&gt;" style="swimlane;fontStyle=1;align=center;verticalAlign=top;childLayout=stackLayout;horizontal=1;startSize=26;horizontalStack=0;resizeParent=1;resizeParentMax=0;resizeLast=0;collapsible=1;marginBottom=0;whiteSpace=wrap;html=1;" parent="1" vertex="1">
          <mxGeometry x="-560" y="-80" width="160" height="86" as="geometry" />
        </mxCell>
        <mxCell id="cpo0J4aH2CnwB5jtcVIV-67" value="+ field: type" style="text;strokeColor=none;fillColor=none;align=left;verticalAlign=top;spacingLeft=4;spacingRight=4;overflow=hidden;rotatable=0;points=[[0,0.5],[1,0.5]];portConstraint=eastwest;whiteSpace=wrap;html=1;" parent="cpo0J4aH2CnwB5jtcVIV-66" vertex="1">
          <mxGeometry y="26" width="160" height="26" as="geometry" />
        </mxCell>
        <mxCell id="cpo0J4aH2CnwB5jtcVIV-68" value="" style="line;strokeWidth=1;fillColor=none;align=left;verticalAlign=middle;spacingTop=-1;spacingLeft=3;spacingRight=3;rotatable=0;labelPosition=right;points=[];portConstraint=eastwest;strokeColor=inherit;" parent="cpo0J4aH2CnwB5jtcVIV-66" vertex="1">
          <mxGeometry y="52" width="160" height="8" as="geometry" />
        </mxCell>
        <mxCell id="cpo0J4aH2CnwB5jtcVIV-69" value="+ method(type): type" style="text;strokeColor=none;fillColor=none;align=left;verticalAlign=top;spacingLeft=4;spacingRight=4;overflow=hidden;rotatable=0;points=[[0,0.5],[1,0.5]];portConstraint=eastwest;whiteSpace=wrap;html=1;" parent="cpo0J4aH2CnwB5jtcVIV-66" vertex="1">
          <mxGeometry y="60" width="160" height="26" as="geometry" />
        </mxCell>
        <mxCell id="cpo0J4aH2CnwB5jtcVIV-73" value="Extends" style="endArrow=block;endSize=16;endFill=0;html=1;rounded=0;exitX=0.5;exitY=0;exitDx=0;exitDy=0;entryX=0.526;entryY=1.208;entryDx=0;entryDy=0;entryPerimeter=0;" parent="1" source="cpo0J4aH2CnwB5jtcVIV-17" target="cpo0J4aH2CnwB5jtcVIV-59" edge="1">
          <mxGeometry width="160" relative="1" as="geometry">
            <mxPoint x="70" y="80" as="sourcePoint" />
            <mxPoint x="230" y="80" as="targetPoint" />
          </mxGeometry>
        </mxCell>
        <mxCell id="cpo0J4aH2CnwB5jtcVIV-74" value="Extends" style="endArrow=block;endSize=16;endFill=0;html=1;rounded=0;exitX=0.5;exitY=0;exitDx=0;exitDy=0;entryX=0.021;entryY=1.094;entryDx=0;entryDy=0;entryPerimeter=0;" parent="1" source="cpo0J4aH2CnwB5jtcVIV-62" target="cpo0J4aH2CnwB5jtcVIV-59" edge="1">
          <mxGeometry width="160" relative="1" as="geometry">
            <mxPoint x="70" y="80" as="sourcePoint" />
            <mxPoint x="-490" y="-200" as="targetPoint" />
          </mxGeometry>
        </mxCell>
        <mxCell id="cpo0J4aH2CnwB5jtcVIV-75" value="Extends" style="endArrow=block;endSize=16;endFill=0;html=1;rounded=0;exitX=0.372;exitY=-0.014;exitDx=0;exitDy=0;exitPerimeter=0;entryX=0.382;entryY=1.023;entryDx=0;entryDy=0;entryPerimeter=0;" parent="1" source="cpo0J4aH2CnwB5jtcVIV-66" target="cpo0J4aH2CnwB5jtcVIV-59" edge="1">
          <mxGeometry width="160" relative="1" as="geometry">
            <mxPoint x="70" y="80" as="sourcePoint" />
            <mxPoint x="230" y="80" as="targetPoint" />
          </mxGeometry>
        </mxCell>
        <mxCell id="cpo0J4aH2CnwB5jtcVIV-76" value="Extends" style="endArrow=block;endSize=16;endFill=0;html=1;rounded=0;exitX=0.436;exitY=-0.043;exitDx=0;exitDy=0;exitPerimeter=0;entryX=0.867;entryY=1.135;entryDx=0;entryDy=0;entryPerimeter=0;" parent="1" source="cpo0J4aH2CnwB5jtcVIV-13" target="cpo0J4aH2CnwB5jtcVIV-59" edge="1">
          <mxGeometry width="160" relative="1" as="geometry">
            <mxPoint x="70" y="80" as="sourcePoint" />
            <mxPoint x="-80" y="-190" as="targetPoint" />
          </mxGeometry>
        </mxCell>
        <mxCell id="cpo0J4aH2CnwB5jtcVIV-78" value="Use" style="endArrow=open;endSize=12;dashed=1;html=1;rounded=0;exitX=1;exitY=0;exitDx=0;exitDy=0;entryX=0;entryY=0;entryDx=0;entryDy=0;" parent="1" source="cpo0J4aH2CnwB5jtcVIV-56" target="cpo0J4aH2CnwB5jtcVIV-1" edge="1">
          <mxGeometry width="160" relative="1" as="geometry">
            <mxPoint x="280" y="-120" as="sourcePoint" />
            <mxPoint x="-40" y="-100" as="targetPoint" />
          </mxGeometry>
        </mxCell>
        <mxCell id="cpo0J4aH2CnwB5jtcVIV-84" style="edgeStyle=orthogonalEdgeStyle;rounded=0;orthogonalLoop=1;jettySize=auto;html=1;exitX=0.75;exitY=0;exitDx=0;exitDy=0;entryX=0.7;entryY=0.116;entryDx=0;entryDy=0;entryPerimeter=0;" parent="1" source="cpo0J4aH2CnwB5jtcVIV-56" target="cpo0J4aH2CnwB5jtcVIV-56" edge="1">
          <mxGeometry relative="1" as="geometry" />
        </mxCell>
        <mxCell id="8dlL9g0PcWlVRfeT2gg--1" value="DaNang" style="swimlane;fontStyle=1;align=center;verticalAlign=top;childLayout=stackLayout;horizontal=1;startSize=26;horizontalStack=0;resizeParent=1;resizeParentMax=0;resizeLast=0;collapsible=1;marginBottom=0;whiteSpace=wrap;html=1;" vertex="1" parent="1">
          <mxGeometry x="960" y="-80" width="270" height="280" as="geometry" />
        </mxCell>
        <mxCell id="8dlL9g0PcWlVRfeT2gg--2" value="- tourName: string&lt;div&gt;- tourCode: string&lt;/div&gt;&lt;div&gt;- departurePoint: string&lt;/div&gt;&lt;div&gt;- hotel: string&lt;/div&gt;&lt;div&gt;- tourPrice: double&lt;/div&gt;&lt;div&gt;- itinerary: vector&amp;lt;Itinerary&amp;gt;&lt;/div&gt;&lt;div&gt;- includedServies: vector&amp;lt;includedService&amp;gt;&lt;/div&gt;&lt;div&gt;- contact: string&lt;/div&gt;&lt;div&gt;- maxGroup: int&lt;/div&gt;&lt;div&gt;- booked: int&lt;/div&gt;" style="text;strokeColor=none;fillColor=none;align=left;verticalAlign=top;spacingLeft=4;spacingRight=4;overflow=hidden;rotatable=0;points=[[0,0.5],[1,0.5]];portConstraint=eastwest;whiteSpace=wrap;html=1;" vertex="1" parent="8dlL9g0PcWlVRfeT2gg--1">
          <mxGeometry y="26" width="270" height="154" as="geometry" />
        </mxCell>
        <mxCell id="8dlL9g0PcWlVRfeT2gg--3" value="" style="line;strokeWidth=1;fillColor=none;align=left;verticalAlign=middle;spacingTop=-1;spacingLeft=3;spacingRight=3;rotatable=0;labelPosition=right;points=[];portConstraint=eastwest;strokeColor=inherit;" vertex="1" parent="8dlL9g0PcWlVRfeT2gg--1">
          <mxGeometry y="180" width="270" height="8" as="geometry" />
        </mxCell>
        <mxCell id="8dlL9g0PcWlVRfeT2gg--4" value="+ DaNang()&lt;div&gt;+ ~DaNang()&lt;/div&gt;&lt;div&gt;+ DaNang(other: const DaNang&amp;amp;)&lt;/div&gt;&lt;div&gt;+ getInfo() const override: string&lt;/div&gt;&lt;div&gt;+ book(groupSize: int) override: bool&lt;/div&gt;" style="text;strokeColor=none;fillColor=none;align=left;verticalAlign=top;spacingLeft=4;spacingRight=4;overflow=hidden;rotatable=0;points=[[0,0.5],[1,0.5]];portConstraint=eastwest;whiteSpace=wrap;html=1;" vertex="1" parent="8dlL9g0PcWlVRfeT2gg--1">
          <mxGeometry y="188" width="270" height="92" as="geometry" />
        </mxCell>
        <mxCell id="8dlL9g0PcWlVRfeT2gg--5" value="PhuQuoc" style="swimlane;fontStyle=1;align=center;verticalAlign=top;childLayout=stackLayout;horizontal=1;startSize=26;horizontalStack=0;resizeParent=1;resizeParentMax=0;resizeLast=0;collapsible=1;marginBottom=0;whiteSpace=wrap;html=1;" vertex="1" parent="1">
          <mxGeometry x="1260" y="-80" width="260" height="280" as="geometry" />
        </mxCell>
        <mxCell id="8dlL9g0PcWlVRfeT2gg--6" value="- tourName: string&lt;div&gt;- tourCode: string&lt;/div&gt;&lt;div&gt;- departurePoint: string&lt;/div&gt;&lt;div&gt;- hotel: string&lt;/div&gt;&lt;div&gt;- tourPrice: double&lt;/div&gt;&lt;div&gt;- itinerary: vector&amp;lt;Itinerary&amp;gt;&lt;/div&gt;&lt;div&gt;- includedServices: vector&amp;lt;IncludedService&amp;gt;&lt;/div&gt;&lt;div&gt;- contact: string&lt;/div&gt;&lt;div&gt;- maxGroup: int&lt;/div&gt;&lt;div&gt;- booked: int&lt;/div&gt;" style="text;strokeColor=none;fillColor=none;align=left;verticalAlign=top;spacingLeft=4;spacingRight=4;overflow=hidden;rotatable=0;points=[[0,0.5],[1,0.5]];portConstraint=eastwest;whiteSpace=wrap;html=1;" vertex="1" parent="8dlL9g0PcWlVRfeT2gg--5">
          <mxGeometry y="26" width="260" height="154" as="geometry" />
        </mxCell>
        <mxCell id="8dlL9g0PcWlVRfeT2gg--7" value="" style="line;strokeWidth=1;fillColor=none;align=left;verticalAlign=middle;spacingTop=-1;spacingLeft=3;spacingRight=3;rotatable=0;labelPosition=right;points=[];portConstraint=eastwest;strokeColor=inherit;" vertex="1" parent="8dlL9g0PcWlVRfeT2gg--5">
          <mxGeometry y="180" width="260" height="8" as="geometry" />
        </mxCell>
        <mxCell id="8dlL9g0PcWlVRfeT2gg--8" value="+ PhuQuoc()&lt;div&gt;+ ~PhuQuoc()&lt;/div&gt;&lt;div&gt;+ PhuQuoc(other: const PhuQuoc&amp;amp;)&lt;/div&gt;&lt;div&gt;+ getInfo() const override: string&lt;/div&gt;&lt;div&gt;+ bool(groupSize: int) override: bool&lt;/div&gt;" style="text;strokeColor=none;fillColor=none;align=left;verticalAlign=top;spacingLeft=4;spacingRight=4;overflow=hidden;rotatable=0;points=[[0,0.5],[1,0.5]];portConstraint=eastwest;whiteSpace=wrap;html=1;" vertex="1" parent="8dlL9g0PcWlVRfeT2gg--5">
          <mxGeometry y="188" width="260" height="92" as="geometry" />
        </mxCell>
        <mxCell id="8dlL9g0PcWlVRfeT2gg--9" value="Extends" style="endArrow=block;endSize=16;endFill=0;html=1;rounded=0;exitX=0.196;exitY=-0.002;exitDx=0;exitDy=0;exitPerimeter=0;entryX=0.371;entryY=1.062;entryDx=0;entryDy=0;entryPerimeter=0;" edge="1" parent="1" source="8dlL9g0PcWlVRfeT2gg--1" target="cpo0J4aH2CnwB5jtcVIV-4">
          <mxGeometry width="160" relative="1" as="geometry">
            <mxPoint x="770" y="50" as="sourcePoint" />
            <mxPoint x="570" y="-180" as="targetPoint" />
          </mxGeometry>
        </mxCell>
        <mxCell id="8dlL9g0PcWlVRfeT2gg--10" value="Extends" style="endArrow=block;endSize=16;endFill=0;html=1;rounded=0;entryX=0.633;entryY=1.1;entryDx=0;entryDy=0;entryPerimeter=0;exitX=0.125;exitY=0.004;exitDx=0;exitDy=0;exitPerimeter=0;" edge="1" parent="1" source="8dlL9g0PcWlVRfeT2gg--5" target="cpo0J4aH2CnwB5jtcVIV-4">
          <mxGeometry width="160" relative="1" as="geometry">
            <mxPoint x="1010" y="50" as="sourcePoint" />
            <mxPoint x="1170" y="50" as="targetPoint" />
          </mxGeometry>
        </mxCell>
      </root>
    </mxGraphModel>
  </diagram>
</mxfile>
